<svg viewBox="0 0 94 102" fill="none" xmlns="http://www.w3.org/2000/svg">
<g filter="url(#filter0_dd_52_728)">
<path fill-rule="evenodd" clip-rule="evenodd" d="M13.0867 19.154C13.0867 14.4634 19.4361 11.7436 23.9902 13.5765C29.2074 16.946 73.5727 41.5419 77.5854 44.8254C81.5981 48.109 82.7489 53.3224 77.3127 57.2C71.8771 61.077 28.6722 86.1089 23.9902 88.2827C19.3073 90.456 13.2818 87.499 13.0867 81.998C12.8916 76.4969 13.0867 23.844 13.0867 19.154ZM19.6414 23.226C19.6414 24.4236 19.6043 77.4165 19.5361 78.5065C19.4239 80.2943 20.9995 82.0906 23.1946 81.0251C25.3898 79.9591 70.7668 53.3162 72.5688 52.6261C74.3712 51.9356 74.2517 50.1772 72.5688 49.0785C70.8863 47.9798 24.682 21.9573 23.3307 20.8145C21.9795 19.6711 19.6414 21.3868 19.6414 23.226Z" fill="#F1CC41"/>
</g>
<defs>
<filter id="filter0_dd_52_728" x="0" y="0" width="94" height="102" filterUnits="userSpaceOnUse" color-interpolation-filters="sRGB">
<feFlood flood-opacity="0" result="BackgroundImageFix"/>
<feColorMatrix in="SourceAlpha" type="matrix" values="0 0 0 0 0 0 0 0 0 0 0 0 0 0 0 0 0 0 127 0" result="hardAlpha"/>
<feOffset dx="-3" dy="-3"/>
<feGaussianBlur stdDeviation="5"/>
<feComposite in2="hardAlpha" operator="out"/>
<feColorMatrix type="matrix" values="0 0 0 0 0 0 0 0 0 0 0 0 0 0 0 0 0 0 0.25 0"/>
<feBlend mode="normal" in2="BackgroundImageFix" result="effect1_dropShadow_52_728"/>
<feColorMatrix in="SourceAlpha" type="matrix" values="0 0 0 0 0 0 0 0 0 0 0 0 0 0 0 0 0 0 127 0" result="hardAlpha"/>
<feOffset dx="3" dy="3"/>
<feGaussianBlur stdDeviation="5"/>
<feComposite in2="hardAlpha" operator="out"/>
<feColorMatrix type="matrix" values="0 0 0 0 0 0 0 0 0 0 0 0 0 0 0 0 0 0 0.25 0"/>
<feBlend mode="normal" in2="effect1_dropShadow_52_728" result="effect2_dropShadow_52_728"/>
<feBlend mode="normal" in="SourceGraphic" in2="effect2_dropShadow_52_728" result="shape"/>
</filter>
</defs>
</svg>
