<svg width="71" height="80" viewBox="0 0 71 80" fill="none" xmlns="http://www.w3.org/2000/svg">
<path fill-rule="evenodd" clip-rule="evenodd" d="M2.08545 8.15395C2.08545 3.46345 8.3414 0.743647 12.8286 2.57653C17.969 5.94603 61.6819 30.5419 65.6356 33.8254C69.5893 37.109 70.7232 42.3224 65.367 46.2C60.0112 50.077 17.4418 75.1089 12.8286 77.2827C8.21452 79.456 2.2777 76.499 2.08545 70.998C1.89319 65.4969 2.08545 12.844 2.08545 8.15395ZM8.54375 12.226C8.54375 13.4236 8.50723 66.4165 8.43994 67.5065C8.32939 69.2943 9.88184 71.0906 12.0447 70.0251C14.2076 68.9591 58.9173 42.3162 60.6928 41.6261C62.4687 40.9356 62.351 39.1772 60.6928 38.0785C59.0351 36.9798 13.5102 10.9573 12.1788 9.81445C10.8474 8.67112 8.54375 10.3868 8.54375 12.226Z" fill="currentColor" stroke="#FFD600" stroke-width="3.125"/>
</svg>
