<svg width="25" height="34" viewBox="0 0 25 34" fill="none" xmlns="http://www.w3.org/2000/svg">
<path id="Vector" d="M12.5 0C5.59687 0 0 5.70881 0 12.75C0 15.5226 0.891146 18.0667 2.3724 20.1503C2.39896 20.2003 2.40312 20.256 2.43333 20.3038L10.7667 33.0538C11.1531 33.6451 11.8042 34 12.5 34C13.1958 34 13.8469 33.6451 14.2333 33.0538L22.5667 20.3038C22.5974 20.256 22.601 20.2003 22.6276 20.1503C24.1089 18.0667 25 15.5226 25 12.75C25 5.70881 19.4031 0 12.5 0ZM12.5 17C10.199 17 8.33333 15.0971 8.33333 12.75C8.33333 10.4029 10.199 8.5 12.5 8.5C14.801 8.5 16.6667 10.4029 16.6667 12.75C16.6667 15.0971 14.801 17 12.5 17Z" fill="#F1CC41"/>
</svg>
