<svg viewBox="0 0 18 15" fill="none" xmlns="http://www.w3.org/2000/svg">
<path d="M16.1505 7.03051L17.739 5.4505C17.8213 5.3682 17.8865 5.2705 17.9311 5.16297C17.9756 5.05544 17.9985 4.94019 17.9985 4.8238C17.9985 4.70741 17.9756 4.59216 17.9311 4.48463C17.8865 4.37709 17.8213 4.27939 17.739 4.19709C17.6567 4.11479 17.559 4.04951 17.4515 4.00496C17.344 3.96042 17.2288 3.9375 17.1124 3.9375C16.9961 3.9375 16.8809 3.96042 16.7734 4.00496C16.6658 4.04951 16.5682 4.11479 16.4859 4.19709L14.9063 5.78592L13.3266 4.19709C13.1605 4.03088 12.9351 3.9375 12.7001 3.9375C12.4651 3.9375 12.2397 4.03088 12.0735 4.19709C11.9074 4.3633 11.814 4.58874 11.814 4.8238C11.814 5.05886 11.9074 5.28429 12.0735 5.4505L13.662 7.03051L12.0735 8.61052C11.9908 8.69258 11.9252 8.7902 11.8804 8.89776C11.8356 9.00533 11.8125 9.1207 11.8125 9.23723C11.8125 9.35375 11.8356 9.46912 11.8804 9.57669C11.9252 9.68425 11.9908 9.78188 12.0735 9.86393C12.1556 9.94666 12.2532 10.0123 12.3607 10.0571C12.4682 10.102 12.5836 10.125 12.7001 10.125C12.8166 10.125 12.9319 10.102 13.0395 10.0571C13.147 10.0123 13.2446 9.94666 13.3266 9.86393L14.9063 8.2751L16.4859 9.86393C16.5679 9.94666 16.6655 10.0123 16.7731 10.0571C16.8806 10.102 16.9959 10.125 17.1124 10.125C17.2289 10.125 17.3443 10.102 17.4518 10.0571C17.5594 10.0123 17.657 9.94666 17.739 9.86393C17.8217 9.78188 17.8874 9.68425 17.9322 9.57669C17.977 9.46912 18 9.35375 18 9.23723C18 9.1207 17.977 9.00533 17.9322 8.89776C17.8874 8.7902 17.8217 8.69258 17.739 8.61052L16.1505 7.03051Z" fill="white"/>
<path d="M8.44204 0.0687252C8.27814 0.0014123 8.0975 -0.0169784 7.9229 0.0158732C7.74831 0.0487249 7.5876 0.131347 7.46103 0.253314L4.13102 3.51438H1.80001C1.32262 3.51438 0.864777 3.6996 0.52721 4.02929C0.189643 4.35898 0 4.80613 0 5.27237V8.78835C0 9.2546 0.189643 9.70175 0.52721 10.0314C0.864777 10.3611 1.32262 10.5463 1.80001 10.5463H4.13102L7.46103 13.8074C7.54513 13.8889 7.64487 13.9533 7.75452 13.9971C7.86417 14.0408 7.98159 14.063 8.10004 14.0623C8.2181 14.0653 8.33523 14.0412 8.44204 13.992C8.6064 13.9261 8.74709 13.8141 8.84639 13.6702C8.94569 13.5263 8.99916 13.3569 9.00004 13.1833V0.8774C8.99916 0.703865 8.94569 0.534468 8.84639 0.390559C8.74709 0.246649 8.6064 0.134668 8.44204 0.0687252Z" fill="white"/>
</svg>
