<svg width="20" height="21" viewBox="0 0 20 21" fill="none" xmlns="http://www.w3.org/2000/svg">
<path d="M5.32804 15.4028C-1.27396 8.46881 -0.958057 3.22489 2.06226 0.846698L2.73142 0.323315C2.90216 0.191401 3.09639 0.0968441 3.30258 0.0452552C3.50878 -0.00633366 3.72274 -0.0139033 3.93177 0.0229953C4.14081 0.0598939 4.34065 0.140509 4.51946 0.260057C4.69826 0.379605 4.85237 0.535651 4.97265 0.718934L6.65784 3.26524C6.88334 3.60602 6.98084 4.02234 6.93158 4.43408C6.88232 4.84582 6.68979 5.22388 6.39102 5.4955L4.7688 6.96814C4.36325 7.33686 4.16474 7.89611 4.34724 8.42622C4.68449 9.41246 5.50307 11.153 7.43906 13.1849C9.37505 15.2179 11.0314 16.0775 11.9706 16.4327C12.4765 16.6233 13.009 16.4159 13.3602 15.9889L14.7625 14.2877C15.0212 13.9739 15.3812 13.7717 15.7733 13.72C16.1654 13.6683 16.5618 13.7707 16.8864 14.0075L19.3154 15.7782C19.4898 15.9041 19.6383 16.0655 19.7521 16.2529C19.8659 16.4402 19.9427 16.6496 19.9779 16.8688C20.0132 17.0879 20.0061 17.3122 19.9572 17.5284C19.9083 17.7446 19.8185 17.9482 19.6932 18.1273L19.1916 18.8367C16.928 22.0061 11.9322 22.3368 5.32804 15.4028Z" fill="currentColor"/>
</svg>
