<?xml version="1.0" standalone="no"?>
<svg version="1.0" xmlns="http://www.w3.org/2000/svg"
 width="50px" height="50px" viewBox="0 0 512.000000 512.000000"
 preserveAspectRatio="xMidYMid meet">

<g transform="translate(0.000000,512.000000) scale(0.100000,-0.100000)"
fill="currentColor" stroke="none">
<path d="M0 2560 l0 -2560 333 1 c219 1 317 4 287 10 -168 33 -297 180 -347
394 -17 76 -18 176 -18 2160 l0 2080 23 89 c50 199 162 327 322 370 52 14 35
15 -272 15 l-328 1 0 -2560z"/>
<path d="M819 5109 c69 -13 139 -38 215 -77 39 -19 561 -316 1160 -660 600
-344 1366 -782 1701 -974 336 -192 647 -374 692 -405 367 -245 367 -621 0
-866 -45 -31 -341 -204 -657 -385 -316 -181 -1081 -619 -1700 -974 -619 -355
-1156 -661 -1195 -680 -77 -38 -147 -64 -216 -77 -25 -5 869 -9 2129 -10
l2172 -1 0 2560 0 2560 -2172 -1 c-1260 -1 -2154 -5 -2129 -10z"/>
</g>
</svg>
