<svg viewBox="0 0 7 8" fill="none" xmlns="http://www.w3.org/2000/svg">
<path d="M5.15055 4.03051L6.739 2.4505C6.82128 2.3682 6.88654 2.2705 6.93107 2.16297C6.9756 2.05544 6.99852 1.94019 6.99852 1.8238C6.99852 1.70741 6.9756 1.59216 6.93107 1.48463C6.88654 1.37709 6.82128 1.27939 6.739 1.19709C6.65671 1.11479 6.55903 1.04951 6.45153 1.00496C6.34403 0.960424 6.2288 0.9375 6.11244 0.9375C5.99608 0.9375 5.88086 0.960424 5.77335 1.00496C5.66585 1.04951 5.56817 1.11479 5.48589 1.19709L3.90626 2.78592L2.32664 1.19709C2.16047 1.03088 1.93509 0.9375 1.70009 0.9375C1.46508 0.9375 1.23971 1.03088 1.07353 1.19709C0.907361 1.3633 0.814006 1.58874 0.814006 1.8238C0.814006 2.05886 0.907361 2.28429 1.07353 2.4505L2.66198 4.03051L1.07353 5.61052C0.990821 5.69258 0.92517 5.7902 0.880368 5.89776C0.835566 6.00533 0.8125 6.1207 0.8125 6.23723C0.8125 6.35375 0.835566 6.46912 0.880368 6.57669C0.92517 6.68425 0.990821 6.78188 1.07353 6.86393C1.15557 6.94666 1.25317 7.01233 1.36071 7.05714C1.46825 7.10196 1.58359 7.12503 1.70009 7.12503C1.81658 7.12503 1.93193 7.10196 2.03947 7.05714C2.147 7.01233 2.2446 6.94666 2.32664 6.86393L3.90626 5.2751L5.48589 6.86393C5.56793 6.94666 5.66553 7.01233 5.77306 7.05714C5.8806 7.10196 5.99594 7.12503 6.11244 7.12503C6.22894 7.12503 6.34428 7.10196 6.45182 7.05714C6.55936 7.01233 6.65696 6.94666 6.739 6.86393C6.82171 6.78188 6.88736 6.68425 6.93216 6.57669C6.97696 6.46912 7.00003 6.35375 7.00003 6.23723C7.00003 6.1207 6.97696 6.00533 6.93216 5.89776C6.88736 5.7902 6.82171 5.69258 6.739 5.61052L5.15055 4.03051Z" fill="white"/>
</svg>
