<svg viewBox="0 0 9 15" fill="none" xmlns="http://www.w3.org/2000/svg">
<path d="M8.44204 0.0687252C8.27814 0.0014123 8.0975 -0.0169784 7.9229 0.0158732C7.74831 0.0487249 7.5876 0.131347 7.46103 0.253314L4.13102 3.51438H1.80001C1.32262 3.51438 0.864777 3.6996 0.52721 4.02929C0.189643 4.35898 0 4.80613 0 5.27237V8.78835C0 9.2546 0.189643 9.70175 0.52721 10.0314C0.864777 10.3611 1.32262 10.5463 1.80001 10.5463H4.13102L7.46103 13.8074C7.54513 13.8889 7.64487 13.9533 7.75452 13.9971C7.86417 14.0408 7.98159 14.063 8.10004 14.0623C8.2181 14.0653 8.33523 14.0412 8.44204 13.992C8.6064 13.9261 8.74709 13.8141 8.84639 13.6702C8.94569 13.5263 8.99916 13.3569 9.00004 13.1833V0.8774C8.99916 0.703865 8.94569 0.534468 8.84639 0.390559C8.74709 0.246649 8.6064 0.134668 8.44204 0.0687252Z" fill="white"/>
</svg>
